<?xml version="1.0" encoding="utf-8"?>
<!-- Generator: Adobe Illustrator 23.1.0, SVG Export Plug-In . SVG Version: 6.00 Build 0)  -->
<svg version="1.1" id="Layer_1" xmlns="http://www.w3.org/2000/svg" xmlns:xlink="http://www.w3.org/1999/xlink" x="0px" y="0px"
	 viewBox="0 0 24 24" style="enable-background:new 0 0 24 24;" xml:space="preserve">
<style type="text/css">
	.st0{clip-path:url(#SVGID_2_);}
	.st1{fill-rule:evenodd;clip-rule:evenodd;fill:#293644;}
</style>
<g>
	<defs>
		<rect id="SVGID_1_" x="1.2" y="1.2" width="21.6" height="21.6"/>
	</defs>
	<clipPath id="SVGID_2_">
		<use xlink:href="#SVGID_1_"  style="overflow:visible;"/>
	</clipPath>
	<g class="st0">
		<path class="st1" d="M11.4,1.8c0.2,0.3,0.1,0.7-0.1,1c-1.2,1.4-2,3.2-2,5.1c0,4.2,3.4,7.6,7.6,7.6c1.4,0,2.8-0.4,3.9-1.1
			c0.3-0.2,0.7-0.2,1,0.1c0.3,0.2,0.4,0.6,0.3,1c-1.5,4.2-5.5,7.2-10.2,7.2C6,22.8,1.2,18,1.2,12c0-5.5,4-10,9.3-10.7
			C10.9,1.3,11.2,1.5,11.4,1.8z M8.5,3.7C5.3,5.1,3,8.3,3,12c0,5,4,9,9,9c3.1,0,5.8-1.6,7.4-3.9c-0.8,0.2-1.6,0.3-2.5,0.3
			c-5.2,0-9.4-4.2-9.4-9.4C7.5,6.4,7.9,5,8.5,3.7z"/>
	</g>
</g>
</svg>
