<?xml version="1.0" encoding="utf-8"?>
<!-- Generator: Adobe Illustrator 23.1.0, SVG Export Plug-In . SVG Version: 6.00 Build 0)  -->
<svg version="1.1" id="Layer_1" xmlns="http://www.w3.org/2000/svg" xmlns:xlink="http://www.w3.org/1999/xlink" x="0px" y="0px"
	 viewBox="0 0 14 15" style="enable-background:new 0 0 14 15;" xml:space="preserve">
<style type="text/css">
	.st0{fill:#293644;}
</style>
<title>text_format</title>
<desc>Created with Sketch.</desc>
<g>
	<path class="st0" d="M7,10.2c1.2,0,2.4-0.5,3.2-1.3c0.9-0.9,1.3-2,1.3-3.2V1.8c0-0.3-0.1-0.5-0.4-0.7c-0.2-0.1-0.5-0.1-0.8,0
		S10,1.5,10,1.8v3.8c0,1.1-0.6,2.1-1.5,2.6c-0.9,0.5-2.1,0.5-3,0C4.5,7.7,4,6.7,4,5.6V1.8c0-0.3-0.1-0.5-0.4-0.7
		C3.3,1,3.1,1,2.8,1.1C2.6,1.3,2.4,1.5,2.4,1.8v3.8c0,1.2,0.5,2.4,1.3,3.2S5.8,10.2,7,10.2z"/>
	<path class="st0" d="M12.3,12.4H1.7c-0.3,0-0.5,0.1-0.7,0.4s-0.1,0.5,0,0.8C1.2,13.8,1.4,14,1.7,14h10.6c0.3,0,0.5-0.1,0.7-0.4
		c0.1-0.2,0.1-0.5,0-0.8C12.8,12.6,12.6,12.4,12.3,12.4L12.3,12.4z"/>
</g>
</svg>
