<?xml version="1.0" encoding="utf-8"?>
<!-- Generator: Adobe Illustrator 23.1.0, SVG Export Plug-In . SVG Version: 6.00 Build 0)  -->
<svg version="1.1" id="Layer_1" xmlns="http://www.w3.org/2000/svg" xmlns:xlink="http://www.w3.org/1999/xlink" x="0px" y="0px"
	 viewBox="0 0 350 435.4" style="enable-background:new 0 0 350 435.4;" xml:space="preserve">
<style type="text/css">
	.st0{fill:#023047;}
</style>
<path class="st0" d="M209.5,71.3c-8.9-7.9-17.3-16.2-25.3-25L175,34.8l-9.2,11.8c-7.9,8.7-16.4,16.9-25.2,24.7
	C98.6,110.6,28,176.4,28,253.6c0,39,15.5,76.4,43.1,103.9c27.6,27.6,65,43.1,103.9,43.1s76.4-15.5,103.9-43.1
	c27.6-27.6,43.1-65,43.1-103.9C322,176.4,251.4,110.6,209.5,71.3L209.5,71.3z M175,377c-32.7,0-64.2-13-87.3-36.2
	c-23.2-23.2-36.2-54.6-36.2-87.3c0-67,65.8-128.4,105.1-165c7.1-6.6,13.3-12.4,18.4-17.6c5.1,5.1,11.3,10.9,18.4,17.6
	c39.3,36.7,105.1,98.1,105.1,165c0,32.7-13,64.2-36.2,87.3C239.1,364,207.7,377,175,377L175,377z"/>
<path class="st0" d="M149.3,298.5h-1.6c-6.7,0.6-13.2,2.5-19.2,5.4c0.4,15.8,8.8,30.4,22.3,38.6c13.5,8.2,30.3,9,44.5,2
	c14.2-7,23.9-20.7,25.7-36.4c-6.8,1.4-13.7,2.3-20.6,2.6h-1.1c-10.8,0-20.5-3.6-29-6.8C162.8,301.1,155.9,298.5,149.3,298.5
	L149.3,298.5z"/>
</svg>
