<?xml version="1.0" encoding="utf-8"?>
<!-- Generator: Adobe Illustrator 23.1.0, SVG Export Plug-In . SVG Version: 6.00 Build 0)  -->
<svg version="1.1" id="Layer_1" xmlns="http://www.w3.org/2000/svg" xmlns:xlink="http://www.w3.org/1999/xlink" x="0px" y="0px"
	 viewBox="0 0 24 24" style="enable-background:new 0 0 24 24;" xml:space="preserve">
<style type="text/css">
	.st0{fill:#293644;}
</style>
<path class="st0" d="M1.2,10.8C0.5,10.8,0,11.3,0,12s0.5,1.2,1.2,1.2s1.2-0.5,1.2-1.2S1.9,10.8,1.2,10.8z M3.5,18.8
	C3,19.3,3,20,3.5,20.5s1.2,0.5,1.7,0s0.5-1.2,0-1.7l0,0C4.7,18.4,4,18.4,3.5,18.8z M5.2,5.2c0.5-0.5,0.5-1.2,0-1.7S4,3,3.5,3.5
	S3,4.7,3.5,5.2l0,0C4,5.6,4.7,5.6,5.2,5.2z M12,2.4c0.7,0,1.2-0.5,1.2-1.2S12.7,0,12,0s-1.2,0.5-1.2,1.2S11.3,2.4,12,2.4z
	 M18.8,18.8c-0.5,0.5-0.5,1.2,0,1.7s1.2,0.5,1.7,0s0.5-1.2,0-1.7l0,0C20,18.4,19.3,18.4,18.8,18.8z M22.8,10.8
	c-0.7,0-1.2,0.5-1.2,1.2s0.5,1.2,1.2,1.2c0.7,0,1.2-0.5,1.2-1.2S23.5,10.8,22.8,10.8z M18.8,3.5c-0.5,0.5-0.5,1.2,0,1.7
	s1.2,0.5,1.7,0s0.5-1.2,0-1.7l0,0C20,3,19.3,3,18.8,3.5z M12,21.6c-0.7,0-1.2,0.5-1.2,1.2c0,0.7,0.5,1.2,1.2,1.2s1.2-0.5,1.2-1.2
	C13.2,22.1,12.7,21.6,12,21.6z M12,4.8C8,4.8,4.8,8,4.8,12S8,19.2,12,19.2s7.2-3.2,7.2-7.2S16,4.8,12,4.8z M12,16.8
	c-2.6,0-4.8-2.2-4.8-4.8S9.4,7.2,12,7.2s4.8,2.2,4.8,4.8S14.6,16.8,12,16.8z"/>
</svg>
