<svg version="1.1" xmlns="http://www.w3.org/2000/svg" xmlns:xlink="http://www.w3.org/1999/xlink" x="0px" y="0px" width="50px" height="50px"
	 viewBox="0 0 43.4 50" style="enable-background:new 0 0 43.4 50;" xml:space="preserve">
	<g>
		<path style="stroke:#FFFFFF;stroke-width:2;stroke-miterlimit:10;"
			  d="M43.4,21.3c0-0.2-0.1-1.5-1.3-2.8c-1.2-1.4-3.2-2.1-5.7-2.3c-0.2-0.4-0.6-0.8-1.1-1.1c-1.4-1-3.7-1.6-6.5-1.7
	c-0.2-0.3-0.7-0.7-1.2-1c-1.3-0.9-2.9-1.4-4.9-1.6v-5c0-0.5,0-2.6-1.4-4.1c-0.7-0.7-1.9-1.5-4-1.5c-2.1,0-3.4,0.8-4.1,1.5
	c-1.4,1.4-1.4,3.3-1.4,3.8v17.9c-1.2-1.2-2.6-2.6-3.4-3.1c-1.6-1.2-4.7-0.6-6.5,0.7c-1.7,1.2-2.3,3-1.6,4.8c1.2,3.1,4.1,6.3,4.8,7
	c0.7,1.2,3.6,6.4,6.2,8.3c1.4,1,2.4,5.1,2.7,7.8l0.1,1.4h24.6v-6.2c0.3-0.9,1.1-2.8,2-3.6c2-2,2.7-6.9,2.7-8.3L43.4,21.3L43.4,21.3z
	"/>
	</g>
</svg>
