<svg version="1.1" xmlns="http://www.w3.org/2000/svg" xmlns:xlink="http://www.w3.org/1999/xlink" x="0px"
     y="0px" width="50px" height="50px"
     viewBox="0 0 50 50" style="enable-background:new 0 0 50 50;" xml:space="preserve">
<path style="fill:#FFFFFF !important;stroke:#000000;stroke-width:2;stroke-miterlimit:10;" d="M45.4,18.5c-1.2-1.4-3.2-2.1-5.7-2.3c-0.2-0.4-0.6-0.8-1.1-1.1c-1.4-1-3.7-1.6-6.5-1.7c-0.2-0.3-0.7-0.7-1.2-1
	C29.6,11.5,28,11,26,10.8v-5c0-0.5,0-2.6-1.4-4.1c-0.7-0.7-1.9-1.5-4-1.5c-2.1,0-3.4,0.8-4.1,1.5c-1.4,1.4-1.4,3.3-1.4,3.8v17.9
	c-1.2-1.2-2.6-2.6-3.4-3.1C10.1,19.1,7,19.7,5.2,21c-1.7,1.2-2.3,3-1.6,4.8c1.2,3.1,4.1,6.3,4.8,7c0.7,1.2,3.6,6.4,6.2,8.3
	c1.4,1,2.4,5.1,2.7,7.8l0.1,1.4H42v-6.2c0.3-0.9,1.1-2.8,2-3.6c2-2,2.7-6.9,2.7-8.3V21.3C46.7,21.1,46.6,19.8,45.4,18.5z"/>
</svg>
