<svg xmlns="http://www.w3.org/2000/svg" xmlns:xlink="http://www.w3.org/1999/xlink" version="1.1" width="1000" height="1000" viewBox="0 0 1000 1000" xml:space="preserve">
<desc>Created with Fabric.js 3.5.0</desc>
<defs>
</defs>
<rect x="0" y="0" width="100%" height="100%" fill="rgba(255,255,255,0)"/>
<g transform="matrix(25.2525 0 0 25.8502 499.9995 492.2298)" id="770847">
<g style="" vector-effect="non-scaling-stroke">
		<g transform="matrix(1 0 0 1 0 0)">
<path style="stroke: none; stroke-width: 1; stroke-dasharray: none; stroke-linecap: butt; stroke-dashoffset: 0; stroke-linejoin: miter; stroke-miterlimit: 4; is-custom-font: none; font-file-url: none; fill: rgb(0,0,0); fill-rule: evenodd; opacity: 1;" transform=" translate(-18, -13)" d="M 28.993 0.0000711 V 0 l -0.0113 0.0000223 l -24.98564 0.049276 C 3.44479 0.0503855 2.94455 0.275608 2.58439 0.636476 C 2.22424 0.997344 2 1.49803 2 2.04929 V 24 c 0 0.552 0.22484 1.0533 0.58579 1.4142 C 2.94673 25.7751 3.44796 26 4 26 h 28 c 0.552 0 1.0533 -0.2249 1.4142 -0.5858 C 33.7752 25.0533 34 24.552 34 24 V 13.778 c -0.014 0.1248 -0.1199 0.2219 -0.2484 0.2219 H 32.2 V 24 c 0 0.0555 -0.0214 0.1042 -0.0586 0.1414 S 32.0555 24.2 32 24.2 H 4 c -0.05548 0 -0.10424 -0.0214 -0.14142 -0.0586 C 3.8214 24.1042 3.8 24.0555 3.8 24 V 13.9999 H 2.25156 c -0.13807 0 -0.25 -0.112 -0.25 -0.25 v -1.5 c 0 -0.1381 0.11193 -0.25 0.25 -0.25 H 3.8 V 2.04929 c 0 -0.05539 0.02135 -0.10411 0.05844 -0.14128 c 0.03709 -0.03716 0.08577 -0.05861 0.14117 -0.05872 l 24.97999 -0.04926 l 3.0225 0.03203 h 0.0001 c 0.055 0.0006 0.1033 0.02223 0.14 0.05932 c 0.0367 0.0371 0.0578 0.08561 0.0578 0.14067 v 9.96785 h 1.5516 c 0.1285 0 0.2344 0.097 0.2484 0.2218 V 2.03205 c 0 -0.54789 -0.2216 -1.046139 -0.5783 -1.406664 c -0.3567 -0.360523 -0.8525 -0.5873892 -1.4004 -0.5932238 v -4e-7 L 28.993 0.0000711 Z" stroke-linecap="round"/>
</g>
		<g transform="matrix(1 0 0 1 0 -0.0002)">
<path style="stroke: none; stroke-width: 1; stroke-dasharray: none; stroke-linecap: butt; stroke-dashoffset: 0; stroke-linejoin: miter; stroke-miterlimit: 4; is-custom-font: none; font-file-url: none; fill: rgb(0,0,0); fill-rule: evenodd; opacity: 1;" transform=" translate(-18, -12.9998)" d="M 35 8.99976 H 1 c -0.552285 0 -1 0.44771 -1 1 v 6.00004 c 0 0.5522 0.447715 1 1 1 h 34 c 0.5523 0 1 -0.4478 1 -1 V 9.99976 c 0 -0.55229 -0.4477 -1 -1 -1 Z M 2.25 11.9998 h 31.5 c 0.1381 0 0.25 0.1119 0.25 0.25 v 1.5 c 0 0.138 -0.1119 0.25 -0.25 0.25 H 2.25 c -0.13807 0 -0.25 -0.112 -0.25 -0.25 v -1.5 c 0 -0.1381 0.11193 -0.25 0.25 -0.25 Z" stroke-linecap="round"/>
</g>
</g>
</g>
<g transform="matrix(0.402 0 0 0.402 520.995 680.7812)" id="570773">
<path style="stroke: none; stroke-width: 1; stroke-dasharray: none; stroke-linecap: butt; stroke-dashoffset: 0; stroke-linejoin: miter; stroke-miterlimit: 4; is-custom-font: none; font-file-url: none; fill: rgb(0,0,0); fill-rule: nonzero; opacity: 1;" vector-effect="non-scaling-stroke" transform=" translate(-159.7912, -252.0268)" d="M 318.4 304.5 c -3.531 9.344 -12.47 15.52 -22.45 15.52 h -105 l 45.15 94.82 c 9.496 19.94 1.031 43.8 -18.91 53.31 c -19.95 9.504 -43.82 1.035 -53.32 -18.91 L 117.3 351.3 l -75 88.25 c -4.641 5.469 -11.37 8.453 -18.28 8.453 c -2.781 0 -5.578 -0.4844 -8.281 -1.469 C 6.281 443.1 0 434.1 0 423.1 V 56.02 c 0 -9.438 5.531 -18.03 14.12 -21.91 C 22.75 30.26 32.83 31.77 39.87 37.99 l 271.1 240 C 319.4 284.6 321.1 295.1 318.4 304.5 z" stroke-linecap="round"/>
</g>
</svg>
