<?xml version="1.0" encoding="UTF-8" standalone="no"?> <svg id="Layer_1" data-name="Layer 1" xmlns="http://www.w3.org/2000/svg" viewBox="0 0 512 512"><title>Reading Mode</title><path d="M185.263,386.061a313.107,313.107,0,0,0-35.908-2.082A304.15,304.15,0,0,0,64,396.1v-275.1a261.318,261.318,0,0,1,170.667,0V234.667a21.333,21.333,0,0,0,42.667,0V120.937c15.65-5.653,45.955-14.27,85.333-14.27A257.2,257.2,0,0,1,448,120.99V241.834a21.333,21.333,0,0,0,42.667,0V106.667a21.334,21.334,0,0,0-11.793-19.081C476.948,86.623,430.918,64,362.667,64,311.649,64,273.047,76.641,256,83.426,238.959,76.64,200.37,64,149.354,64,81.105,64,35.056,86.621,33.13,87.583a21.333,21.333,0,0,0-11.8,19.083V426.646a21.376,21.376,0,0,0,30.8,19.116c.39-.192,39.591-19.116,97.217-19.116a270.072,270.072,0,0,1,30.994,1.8,21.334,21.334,0,0,0,4.915-42.383Z"/><path d="M488.727,343.111C487.3,339.99,452.533,266.667,352,266.667S216.7,339.99,215.273,343.111a21.334,21.334,0,0,0,0,17.777C216.7,364.01,251.467,437.333,352,437.333s135.3-73.323,136.727-76.445A21.334,21.334,0,0,0,488.727,343.111ZM352,394.667c-54.163,0-81.594-27.8-92.389-42.667,10.795-14.865,38.226-42.667,92.389-42.667,54.233,0,81.666,27.874,92.4,42.654C433.61,366.849,406.18,394.667,352,394.667Z"/><circle cx="352" cy="352" r="21.333"/></svg>