<?xml version="1.0" encoding="utf-8"?>
<!-- Generator: Adobe Illustrator 23.1.0, SVG Export Plug-In . SVG Version: 6.00 Build 0)  -->
<svg version="1.1" id="Layer_1" xmlns="http://www.w3.org/2000/svg" xmlns:xlink="http://www.w3.org/1999/xlink" x="0px" y="0px"
	 viewBox="0 0 42.3 45.3" style="enable-background:new 0 0 42.3 45.3;" xml:space="preserve">
<style type="text/css">
	.st0{fill:#FFFFFF;}
</style>
<title>34 Update, reset_4</title>
<g>
	<path class="st0" d="M40.2,24.2h-4c-1.1,0-2,0.9-2,2v4c0,0.6-0.4,1-1,1h-21V27c0-1.1-0.9-2-2-2c-0.5,0-1,0.2-1.4,0.6l-8.2,8.2
		c-0.8,0.8-0.8,2,0,2.8l0,0l8.2,8.2c0.8,0.8,2,0.8,2.8,0c0.4-0.4,0.6-0.9,0.6-1.4v-4.2h21c5,0,9-4,9-9v-4
		C42.2,25.1,41.3,24.2,40.2,24.2z"/>
	<path class="st0" d="M41.8,8.8l-8.2-8.2c-0.8-0.8-2-0.8-2.8,0C30.4,1,30.2,1.5,30.2,2v4.2h-21c-5,0-9,4-9,9l0,0v4c0,1.1,0.9,2,2,2
		h4c1.1,0,2-0.9,2-2v-4c0-0.6,0.4-1,1-1h21v4.2c0,1.1,0.9,2,2,2c0.5,0,1-0.2,1.4-0.6l8.2-8.2C42.5,10.8,42.5,9.5,41.8,8.8L41.8,8.8z
		"/>
</g>
</svg>
