<?xml version="1.0" encoding="utf-8"?>
<!-- Generator: Adobe Illustrator 23.1.0, SVG Export Plug-In . SVG Version: 6.00 Build 0)  -->
<svg version="1.1" id="Layer_1" xmlns="http://www.w3.org/2000/svg" xmlns:xlink="http://www.w3.org/1999/xlink" x="0px" y="0px"
	 viewBox="0 0 14 15" style="enable-background:new 0 0 14 15;" xml:space="preserve">
<style type="text/css">
	.st0{fill:none;}
	.st1{fill-rule:evenodd;clip-rule:evenodd;fill:#293644;}
</style>
<title>text_format</title>
<desc>Created with Sketch.</desc>
<g id="Icons">
	<g id="Rounded" transform="translate(-309.000000, -1530.000000)">
		<g id="Content" transform="translate(100.000000, 1428.000000)">
			<g transform="translate(204.000000, 98.000000)">
				<g>
					<polygon id="Path" class="st0" points="1.6,1.6 22.4,1.6 22.4,22.4 1.6,22.4 					"/>
					<path class="st1" d="M5.9,17.2c0,0.4,0.3,0.9,0.9,0.9h10.4c0.4,0,0.9-0.4,0.9-0.9c0-0.4-0.4-0.9-0.9-0.9H6.8
						C6.3,16.3,5.9,16.8,5.9,17.2z"/>
				</g>
			</g>
		</g>
	</g>
</g>
<path class="st1" d="M3,2.6c0,0.5,0.4,1,1,1h2.2V10c0,0.5,0.4,1,1,1s1-0.4,1-1V3.5h2.2c0.5,0,1-0.4,1-1s-0.4-1-1-1H4
	C3.4,1.7,3,2.1,3,2.6z"/>
</svg>
